<svg xmlns="http://www.w3.org/2000/svg" width="48" height="48" viewBox="0 0 48 48">
  <g fill="#FFF" fill-rule="evenodd">
    <path d="M24.0100734 28.2014675L25 48 16 48 16.4937372 38.1252551C18.2383079 36.3463623 20.0058255 34.2213062 21.6743903 31.8383487 22.5268795 30.620868 23.3072741 29.4021401 24.0100734 28.2014675zM16.6212409 20.8630591C15.2537683 22.1878718 13.8506644 23.8338725 12.5362564 25.7110417 8.41814864 31.5923091 6.73012359 37.5156134 8.76594691 38.9411123 10.8017702 40.3666111 15.790517 36.754497 19.9086248 30.8732296 21.2230328 28.9960604 22.2898777 27.1146087 23.0670912 25.3764921 21.6457854 26.0664712 19.9027803 25.9860389 18.5167463 25.0155275 17.1307124 24.0450161 16.4589879 22.4346364 16.6212409 20.8630591z"/>
    <circle cx="21.078" cy="21.378" r="3" transform="rotate(35 21.078 21.378)"/>
    <path d="M15.1179524,27.4561693 C15.1205378,27.4561819 15.1231237,27.4561882 15.1257102,27.4561882 C15.1283042,27.4561882 15.1308977,27.4561818 15.1334906,27.4561692 C15.1308905,27.4561736 15.1282899,27.4561758 15.1256887,27.4561758 C15.1231094,27.4561758 15.1205307,27.4561736 15.1179524,27.4561693 Z M11.1912377,20.770436 C10.8309556,18.9008717 10.6257102,16.7477732 10.6257102,14.4561882 C10.6257102,7.27648644 12.6404288,1.45618819 15.1257102,1.45618819 C17.6109915,1.45618819 19.6257102,7.27648644 19.6257102,14.4561882 C19.6257102,16.7477966 19.4204605,18.9009157 19.0601716,20.7704933 C18.2916667,19.3900506 16.8177367,18.4561758 15.1256887,18.4561758 C13.433664,18.4561758 11.9597515,19.3900247 11.1912377,20.770436 Z" transform="rotate(-30 15.126 11.113)"/>
    <path d="M28.7574052,13.7514251 C28.3971186,15.6209982 28.1918704,17.7741103 28.1918704,20.0657108 C28.1918704,27.2454125 30.206589,33.0657108 32.6918704,33.0657108 C35.1771517,33.0657108 37.1918704,27.2454125 37.1918704,20.0657108 C37.1918704,17.7741103 36.9866221,15.6209982 36.6263355,13.7514251 C35.8578257,15.1318504 34.3839054,16.0657108 32.6918704,16.0657108 C30.9998353,16.0657108 29.5259151,15.1318504 28.7574052,13.7514251 Z" transform="rotate(-80 32.692 23.409)"/>
  </g>
</svg>
