<svg xmlns="http://www.w3.org/2000/svg" width="48" height="48" viewBox="0 0 48 48">
  <path fill="#FFF" fill-rule="evenodd" d="M29.6798379,32.9085174 C29.6798379,32.2018892 29.5869648,31.5793928 29.4012158,31.0410095 C29.2154668,30.5026261 28.9115185,30.0147235 28.4893617,29.5772871 C28.0672049,29.1398506 27.5226308,28.7360691 26.8556231,28.3659306 C26.1886154,27.9957921 25.373865,27.6340712 24.4113475,27.2807571 C22.7564929,26.6582514 21.2536373,26.0063126 19.9027356,25.3249211 C18.5518338,24.6435297 17.3951416,23.8569971 16.4326241,22.9652997 C15.4701066,22.0736023 14.7229003,21.0305002 14.1909828,19.8359621 C13.6590652,18.6414241 13.3931104,17.2197769 13.3931104,15.5709779 C13.3931104,14.1408972 13.6295147,12.8370196 14.1023303,11.659306 C14.5751459,10.4815924 15.2505866,9.45531457 16.1286727,8.58044164 C17.0067589,7.70556871 18.0579135,6.99474511 19.2821682,6.44794953 C20.5064229,5.90115394 21.8784119,5.55205123 23.3981763,5.40063091 L23.3981763,0 L27.4508612,0 L27.4508612,5.47634069 C28.9030805,5.67823445 30.22019,6.09042801 31.402229,6.71293375 C32.584268,7.3354395 33.5889861,8.1430024 34.4164134,9.13564669 C35.2438407,10.128291 35.8812879,11.3017808 36.3287741,12.6561514 C36.7762603,14.010522 37,15.5289085 37,17.2113565 L29.6798379,17.2113565 C29.6798379,15.1924189 29.2619089,13.6824445 28.4260385,12.681388 C27.5901681,11.6803315 26.4714694,11.1798107 25.0699088,11.1798107 C24.3100266,11.1798107 23.6556934,11.2933743 23.1068896,11.5205047 C22.5580857,11.7476352 22.1063848,12.0588834 21.751773,12.4542587 C21.3971613,12.8496339 21.1354281,13.3165062 20.9665653,13.8548896 C20.7977026,14.3932729 20.7132725,14.9737088 20.7132725,15.5962145 C20.7132725,16.2187203 20.7977026,16.7823319 20.9665653,17.2870662 C21.1354281,17.7918006 21.4267119,18.2586729 21.8404255,18.6876972 C22.2541392,19.1167214 22.8029348,19.5205028 23.4868288,19.8990536 C24.1707228,20.2776044 25.0192452,20.6687677 26.0324215,21.0725552 C27.6703898,21.7287099 29.1605809,22.401679 30.5030395,23.0914826 C31.8454981,23.7812863 32.9979688,24.576231 33.9604863,25.4763407 C34.9230038,26.3764503 35.6702101,27.4237585 36.2021277,28.6182965 C36.7340452,29.8128346 37,31.2260697 37,32.8580442 C37,34.3385984 36.7593742,35.6677123 36.2781155,36.8454259 C35.7968568,38.0231394 35.1171945,39.0410052 34.2391084,39.8990536 C33.3610223,40.7571021 32.3014246,41.4468954 31.0602837,41.9684543 C29.8191427,42.4900131 28.4387107,42.8264977 26.9189463,42.977918 L26.9189463,48 L22.8915907,48 L22.8915907,43.0031546 C21.4900301,42.8517343 20.1349272,42.5236618 18.8262411,42.0189274 C17.5175551,41.5141931 16.3566413,40.7865452 15.343465,39.8359621 C14.3302888,38.8853791 13.5197599,37.6866529 12.9118541,36.2397476 C12.3039483,34.7928424 12,33.059947 12,31.0410095 L19.3201621,31.0410095 C19.3201621,32.2355475 19.4763578,33.232383 19.7887538,34.0315457 C20.1011498,34.8307085 20.5190788,35.4700291 21.0425532,35.9495268 C21.5660276,36.4290245 22.1612598,36.765509 22.8282675,36.9589905 C23.4952752,37.1524721 24.1749374,37.2492114 24.8672746,37.2492114 C25.6609293,37.2492114 26.3574776,37.1398539 26.9569402,36.9211356 C27.5564029,36.7024174 28.0587619,36.3995813 28.4640324,36.0126183 C28.8693029,35.6256553 29.1732513,35.1671951 29.3758865,34.637224 C29.5785218,34.1072529 29.6798379,33.5310231 29.6798379,32.9085174 Z"/>
</svg>
