<svg xmlns="http://www.w3.org/2000/svg" width="48" height="48" viewBox="0 0 48 48">
  <g fill="#FFF" fill-rule="evenodd">
    <g transform="translate(16 40)">
      <path d="M15 0L20 0 20 6 20 6C20 6.55228475 19.5522847 7 19 7L16 7 16 7C15.4477153 7 15 6.55228475 15 6L15 0zM0 0L5 0 5 6 5 6C5 6.55228475 4.55228475 7 4 7L1 7 1 7C.44771525 7 6.76353751e-17 6.55228475 0 6L0 0z"/>
    </g>
    <path fill-rule="nonzero" d="M6.7,29.3 L6.7,32.8952 C6.7,33.56 7.24,34.1 7.9048,34.1 L10.2976,34.1 C10.96,34.1 11.5,33.56 11.5,32.8952 L11.5,29.3 C11.5,26.9984 13.4224,23.8448 16.3,22.6304 L16.3,17.5784 C10.7416,18.8648 6.7,24.428 6.7,29.3 Z M34.656,6.9824 L28.584,11.5376 C27.7512,12.1616 26.7384,12.5 25.6968,12.5 L20.112,12.5 C18.78,12.5 17.7,13.58 17.7,14.912 L17.7,24.4904 C17.7,25.82 18.78,26.9 20.112,26.9 L25.6968,26.9 C26.7384,26.9 27.7512,27.2384 28.584,27.8624 L34.6584,32.4176 C36.1128,33.5096 37.884,34.1 39.7032,34.1 L44.1,34.1 L44.1,5.3 L39.7032,5.3 C37.884,5.3 36.1128,5.8904 34.656,6.9824 Z" transform="rotate(90 25.4 19.7)"/>
  </g>
</svg>
