<svg xmlns="http://www.w3.org/2000/svg" width="48" height="48" viewBox="0 0 48 48">
  <g fill="#FFF" transform="translate(2)">
    <path d="M31.0988846,20.1657255 C30.90724,19.9155363 30.5895305,19.7963447 30.2808776,19.8587707 L22.4957403,21.4304181 L23.6686538,9.90837296 C23.7098129,9.5039786 23.4502436,9.12990775 23.0569275,9.02696953 C22.6638539,8.92411218 22.2541226,9.12295356 22.091912,9.49581146 L14.0684724,27.9350137 C13.9458845,28.2168202 13.9901164,28.5434246 14.1833783,28.7825356 C14.3765593,29.0215658 14.6867486,29.1333989 14.9879621,29.0725093 L22.6631261,27.5230991 L19.9055463,39.9971408 C19.8155462,40.4037185 20.0430129,40.8136115 20.4356013,40.9526145 C20.5263293,40.9847169 20.6191597,41 20.7106154,41 C21.0156295,41 21.3057648,40.8299457 21.4487301,40.5433683 L31.1820924,21.0354847 C31.3228743,20.7534356 31.2905292,20.4159956 31.0988846,20.1657255 Z"/>
    <path d="M45,24.5 C45,27.5506662 44.3928687,30.4595293 43.2928434,33.1123518 C42.1524792,35.862456 40.4824084,38.3373968 38.4099026,40.4099026 C34.3382034,44.4816017 28.7132034,47 22.5,47 C15.5855722,47 9.39960984,43.8810691 5.27223995,38.9733345 L8.23707529,37.8932068 C11.9013109,41.7963908 17.0129705,44.0652174 22.5,44.0652174 C27.7622691,44.0652174 32.687284,41.9821117 36.3346979,38.3346979 C38.1518759,36.5175199 39.598053,34.3608392 40.5818881,31.9882211 C41.4216866,29.9629616 41.9152413,27.8048598 42.0359945,25.5798253 L45,24.5 Z M45,24.5 C45,27.5506662 44.3928687,30.4595293 43.2928434,33.1123518 C42.1524792,35.862456 40.4824084,38.3373968 38.4099026,40.4099026 C34.3382034,44.4816017 28.7132034,47 22.5,47 C15.5855722,47 9.39960984,43.8810691 5.27223995,38.9733345 L8.23707529,37.8932068 C11.9013109,41.7963908 17.0129705,44.0652174 22.5,44.0652174 C27.7622691,44.0652174 32.687284,41.9821117 36.3346979,38.3346979 C38.1518759,36.5175199 39.598053,34.3608392 40.5818881,31.9882211 C41.4216866,29.9629616 41.9152413,27.8048598 42.0359945,25.5798253 L45,24.5 Z M8.66530211,10.6653021 C12.312716,7.01788825 17.2377309,4.93478261 22.5,4.93478261 C27.3419937,4.93478261 31.8984521,6.69843756 35.4368181,9.82158934 L38.4099026,8.59009742 C34.3382034,4.51839828 28.7132034,2 22.5,2 C16.2867966,2 10.6617966,4.51839828 6.59009742,8.59009742 C2.51839828,12.6617966 0,18.2867966 0,24.5 L2.97297122,23.268555 C3.27115057,18.4730748 5.30394627,14.0266579 8.66530211,10.6653021 Z M8.66530211,10.6653021 C12.312716,7.01788825 17.2377309,4.93478261 22.5,4.93478261 C27.3419937,4.93478261 31.8984521,6.69843756 35.4368181,9.82158934 L38.4099026,8.59009742 C34.3382034,4.51839828 28.7132034,2 22.5,2 C16.2867966,2 10.6617966,4.51839828 6.59009742,8.59009742 C2.51839828,12.6617966 0,18.2867966 0,24.5 L2.97297122,23.268555 C3.27115057,18.4730748 5.30394627,14.0266579 8.66530211,10.6653021 Z"/>
    <path d="M30,8.9 C29.1715729,8.9 28.5,9.57157288 28.5,10.4 C28.5,11.2284271 29.1715729,11.9 30,11.9 L35.6,11.9 C37.2016258,11.9 38.5,10.6016258 38.5,9 L38.5,3.4 C38.5,2.57157288 37.8284271,1.9 37,1.9 C36.1715729,1.9 35.5,2.57157288 35.5,3.4 L35.5,8.9 L30,8.9 Z" transform="rotate(-15 33.5 6.9)"/>
    <path d="M6,42.9 C5.17157288,42.9 4.5,43.5715729 4.5,44.4 C4.5,45.2284271 5.17157288,45.9 6,45.9 L11.6,45.9 C13.2016258,45.9 14.5,44.6016258 14.5,43 L14.5,37.4 C14.5,36.5715729 13.8284271,35.9 13,35.9 C12.1715729,35.9 11.5,36.5715729 11.5,37.4 L11.5,42.9 L6,42.9 Z" transform="rotate(165 9.5 40.9)"/>
  </g>
</svg>
